<svg width="48" height="48" viewBox="0 0 48 48" fill="none" xmlns="http://www.w3.org/2000/svg">
<path d="M24.0009 13.3072C21.2087 13.358 18.548 14.5072 16.5913 16.5077C14.6346 18.5081 13.5383 21.1998 13.5383 24.0035C13.5383 26.8073 14.6346 29.4989 16.5913 31.4994C18.548 33.4998 21.2087 34.649 24.0009 34.6998C26.793 34.649 29.4537 33.4998 31.4105 31.4994C33.3672 29.4989 34.4635 26.8073 34.4635 24.0035C34.4635 21.1998 33.3672 18.5081 31.4105 16.5077C29.4537 14.5072 26.793 13.358 24.0009 13.3072ZM24.0009 31.8643C21.9243 31.8643 19.9328 31.0361 18.4645 29.5619C16.9962 28.0877 16.1713 26.0883 16.1713 24.0035C16.1713 21.9187 16.9962 19.9193 18.4645 18.4451C19.9328 16.9709 21.9243 16.1427 24.0009 16.1427C26.0774 16.1427 28.0689 16.9709 29.5372 18.4451C31.0056 19.9193 31.8305 21.9187 31.8305 24.0035C31.8305 26.0883 31.0056 28.0877 29.5372 29.5619C28.0689 31.0361 26.0774 31.8643 24.0009 31.8643ZM38.989 0H9.01103C7.82746 0.000230401 6.65552 0.23451 5.56212 0.689462C4.46873 1.14441 3.4753 1.81113 2.63855 2.65154C1.80179 3.49195 1.13811 4.4896 0.685389 5.58753C0.232666 6.68545 -0.000229361 7.86215 1.69496e-07 9.05045V38.9531C1.69496e-07 43.9538 4.03714 48 9.01103 48H38.989C43.9699 48 48 43.9468 48 38.9548V9.05395C48 4.05322 43.9681 0 38.989 0ZM34.8994 5.39377C34.8994 4.33221 35.7558 3.46893 36.8166 3.46893H42.4441C43.4997 3.46893 44.3596 4.3287 44.3596 5.39377V11.0437C44.3596 12.1035 43.5032 12.9668 42.4406 12.9668H36.8131C35.7593 12.9668 34.8977 12.107 34.8977 11.042V5.39202L34.8994 5.39377ZM46.0845 38.9548C46.0845 42.8817 42.9038 46.0787 38.989 46.0787H9.01103C7.12974 46.0768 5.32602 45.3257 3.99575 43.9901C2.66547 42.6545 1.91731 40.8436 1.91546 38.9548V15.0197H3.36079C3.53905 14.1424 4.31152 13.4792 5.23954 13.4792H11.2481C12.1743 13.4792 12.9503 14.1407 13.1251 15.018H15.7431C17.9137 13.0054 20.8114 11.7737 24.0009 11.7737C27.1904 11.7737 30.0828 13.0019 32.2552 15.0145H46.0828V38.9531H46.0863L46.0845 38.9548Z" fill="white"/>
</svg>
