<svg width="48" height="40" viewBox="0 0 48 40" fill="none" xmlns="http://www.w3.org/2000/svg">
<path d="M48 4.62859C46.2348 5.41077 44.3386 5.93926 42.3451 6.17814C44.402 4.94737 45.9409 3.01027 46.6745 0.728305C44.742 1.87617 42.627 2.68415 40.4214 3.1171C38.9382 1.53345 36.9736 0.483773 34.8327 0.131051C32.6918 -0.221671 30.4943 0.142292 28.5815 1.16643C26.6686 2.19057 25.1474 3.81759 24.254 5.79489C23.3606 7.77218 23.145 9.98912 23.6406 12.1015C19.7249 11.9049 15.8942 10.8871 12.3973 9.11426C8.90032 7.34138 5.81522 4.85302 3.3422 1.81066C2.49661 3.26931 2.01039 4.96049 2.01039 6.7616C2.00945 8.38301 2.40874 9.97959 3.17283 11.4097C3.93691 12.8398 5.04218 14.0591 6.39056 14.9596C4.8268 14.9099 3.29754 14.4873 1.93006 13.7272V13.854C1.9299 16.1281 2.71653 18.3322 4.15647 20.0923C5.59641 21.8525 7.60096 23.0602 9.83 23.5107C8.37935 23.9033 6.85846 23.9611 5.38219 23.6798C6.01109 25.6365 7.23614 27.3476 8.88583 28.5735C10.5355 29.7994 12.5273 30.4787 14.5822 30.5164C11.0938 33.2549 6.78563 34.7403 2.35074 34.7338C1.56515 34.734 0.780219 34.6881 0 34.5964C4.50167 37.4908 9.74193 39.0269 15.0938 39.0209C33.2106 39.0209 43.1146 24.0159 43.1146 11.0022C43.1146 10.5794 43.104 10.1524 43.085 9.72962C45.0115 8.33646 46.6743 6.61129 47.9958 4.63494L48 4.62859V4.62859Z" fill="white"/>
</svg>
